<mxfile host="app.diagrams.net" agent="Mozilla/5.0 (Windows NT 10.0; Win64; x64) AppleWebKit/537.36 (KHTML, like Gecko) Chrome/141.0.0.0 Safari/537.36" version="28.2.5">
  <diagram name="Page-1" id="niYSZ-BclHpuc8kR9TYs">
    <mxGraphModel dx="2248" dy="879" grid="1" gridSize="10" guides="1" tooltips="1" connect="1" arrows="1" fold="1" page="1" pageScale="1" pageWidth="200" pageHeight="200" math="0" shadow="0">
      <root>
        <mxCell id="v7loar4NtZiH1IZPTKfI-0" />
        <mxCell id="v7loar4NtZiH1IZPTKfI-1" parent="v7loar4NtZiH1IZPTKfI-0" />
        <mxCell id="2lPDT9tBsX9n8PKWMI---0" value="ArticuloViewModel" style="swimlane;fontStyle=1;align=center;verticalAlign=top;childLayout=stackLayout;horizontal=1;startSize=26;horizontalStack=0;resizeParent=1;resizeParentMax=0;resizeLast=0;collapsible=1;marginBottom=0;whiteSpace=wrap;html=1;" vertex="1" parent="v7loar4NtZiH1IZPTKfI-1">
          <mxGeometry x="1420" y="-92" width="290" height="372" as="geometry" />
        </mxCell>
        <mxCell id="2lPDT9tBsX9n8PKWMI---1" value="+ Articulos: ObservableCollection" style="text;strokeColor=none;fillColor=none;align=left;verticalAlign=top;spacingLeft=4;spacingRight=4;overflow=hidden;rotatable=0;points=[[0,0.5],[1,0.5]];portConstraint=eastwest;whiteSpace=wrap;html=1;" vertex="1" parent="2lPDT9tBsX9n8PKWMI---0">
          <mxGeometry y="26" width="290" height="26" as="geometry" />
        </mxCell>
        <mxCell id="2lPDT9tBsX9n8PKWMI---12" value="+ GuardarCommand: ICommand" style="text;strokeColor=none;fillColor=none;align=left;verticalAlign=top;spacingLeft=4;spacingRight=4;overflow=hidden;rotatable=0;points=[[0,0.5],[1,0.5]];portConstraint=eastwest;whiteSpace=wrap;html=1;" vertex="1" parent="2lPDT9tBsX9n8PKWMI---0">
          <mxGeometry y="52" width="290" height="26" as="geometry" />
        </mxCell>
        <mxCell id="2lPDT9tBsX9n8PKWMI---14" value="+ EliminarCommand: ICommand" style="text;strokeColor=none;fillColor=none;align=left;verticalAlign=top;spacingLeft=4;spacingRight=4;overflow=hidden;rotatable=0;points=[[0,0.5],[1,0.5]];portConstraint=eastwest;whiteSpace=wrap;html=1;" vertex="1" parent="2lPDT9tBsX9n8PKWMI---0">
          <mxGeometry y="78" width="290" height="26" as="geometry" />
        </mxCell>
        <mxCell id="2lPDT9tBsX9n8PKWMI---30" value="+ AplicarFiltroCommand: ICommand" style="text;strokeColor=none;fillColor=none;align=left;verticalAlign=top;spacingLeft=4;spacingRight=4;overflow=hidden;rotatable=0;points=[[0,0.5],[1,0.5]];portConstraint=eastwest;whiteSpace=wrap;html=1;" vertex="1" parent="2lPDT9tBsX9n8PKWMI---0">
          <mxGeometry y="104" width="290" height="26" as="geometry" />
        </mxCell>
        <mxCell id="2lPDT9tBsX9n8PKWMI---32" value="+ LimpiarFiltroCommand: ICommand" style="text;strokeColor=none;fillColor=none;align=left;verticalAlign=top;spacingLeft=4;spacingRight=4;overflow=hidden;rotatable=0;points=[[0,0.5],[1,0.5]];portConstraint=eastwest;whiteSpace=wrap;html=1;" vertex="1" parent="2lPDT9tBsX9n8PKWMI---0">
          <mxGeometry y="130" width="290" height="26" as="geometry" />
        </mxCell>
        <mxCell id="2lPDT9tBsX9n8PKWMI---63" value="+ CargarArticulosCommand: ICommand" style="text;strokeColor=none;fillColor=none;align=left;verticalAlign=top;spacingLeft=4;spacingRight=4;overflow=hidden;rotatable=0;points=[[0,0.5],[1,0.5]];portConstraint=eastwest;whiteSpace=wrap;html=1;" vertex="1" parent="2lPDT9tBsX9n8PKWMI---0">
          <mxGeometry y="156" width="290" height="26" as="geometry" />
        </mxCell>
        <mxCell id="2lPDT9tBsX9n8PKWMI---23" value="+ ArticuloSeleccionado: Articulo" style="text;strokeColor=none;fillColor=none;align=left;verticalAlign=top;spacingLeft=4;spacingRight=4;overflow=hidden;rotatable=0;points=[[0,0.5],[1,0.5]];portConstraint=eastwest;whiteSpace=wrap;html=1;" vertex="1" parent="2lPDT9tBsX9n8PKWMI---0">
          <mxGeometry y="182" width="290" height="26" as="geometry" />
        </mxCell>
        <mxCell id="2lPDT9tBsX9n8PKWMI---15" value="+ ListaDeCampos: List&amp;lt;string&amp;gt;" style="text;strokeColor=none;fillColor=none;align=left;verticalAlign=top;spacingLeft=4;spacingRight=4;overflow=hidden;rotatable=0;points=[[0,0.5],[1,0.5]];portConstraint=eastwest;whiteSpace=wrap;html=1;" vertex="1" parent="2lPDT9tBsX9n8PKWMI---0">
          <mxGeometry y="208" width="290" height="26" as="geometry" />
        </mxCell>
        <mxCell id="2lPDT9tBsX9n8PKWMI---24" value="+ ListaDeCriterios: List&amp;lt;string&amp;gt;" style="text;strokeColor=none;fillColor=none;align=left;verticalAlign=top;spacingLeft=4;spacingRight=4;overflow=hidden;rotatable=0;points=[[0,0.5],[1,0.5]];portConstraint=eastwest;whiteSpace=wrap;html=1;" vertex="1" parent="2lPDT9tBsX9n8PKWMI---0">
          <mxGeometry y="234" width="290" height="26" as="geometry" />
        </mxCell>
        <mxCell id="2lPDT9tBsX9n8PKWMI---26" value="+ CampoSeleccionado: string" style="text;strokeColor=none;fillColor=none;align=left;verticalAlign=top;spacingLeft=4;spacingRight=4;overflow=hidden;rotatable=0;points=[[0,0.5],[1,0.5]];portConstraint=eastwest;whiteSpace=wrap;html=1;" vertex="1" parent="2lPDT9tBsX9n8PKWMI---0">
          <mxGeometry y="260" width="290" height="26" as="geometry" />
        </mxCell>
        <mxCell id="2lPDT9tBsX9n8PKWMI---27" value="+ CriterioSeleccionado: string" style="text;strokeColor=none;fillColor=none;align=left;verticalAlign=top;spacingLeft=4;spacingRight=4;overflow=hidden;rotatable=0;points=[[0,0.5],[1,0.5]];portConstraint=eastwest;whiteSpace=wrap;html=1;" vertex="1" parent="2lPDT9tBsX9n8PKWMI---0">
          <mxGeometry y="286" width="290" height="26" as="geometry" />
        </mxCell>
        <mxCell id="2lPDT9tBsX9n8PKWMI---25" value="+ ValorFiltro: string" style="text;strokeColor=none;fillColor=none;align=left;verticalAlign=top;spacingLeft=4;spacingRight=4;overflow=hidden;rotatable=0;points=[[0,0.5],[1,0.5]];portConstraint=eastwest;whiteSpace=wrap;html=1;" vertex="1" parent="2lPDT9tBsX9n8PKWMI---0">
          <mxGeometry y="312" width="290" height="26" as="geometry" />
        </mxCell>
        <mxCell id="2lPDT9tBsX9n8PKWMI---2" value="" style="line;strokeWidth=1;fillColor=none;align=left;verticalAlign=middle;spacingTop=-1;spacingLeft=3;spacingRight=3;rotatable=0;labelPosition=right;points=[];portConstraint=eastwest;strokeColor=inherit;" vertex="1" parent="2lPDT9tBsX9n8PKWMI---0">
          <mxGeometry y="338" width="290" height="8" as="geometry" />
        </mxCell>
        <mxCell id="2lPDT9tBsX9n8PKWMI---3" value="+ ArticuloViewModel(IRepositorioArticulo repo)" style="text;strokeColor=none;fillColor=none;align=left;verticalAlign=top;spacingLeft=4;spacingRight=4;overflow=hidden;rotatable=0;points=[[0,0.5],[1,0.5]];portConstraint=eastwest;whiteSpace=wrap;html=1;" vertex="1" parent="2lPDT9tBsX9n8PKWMI---0">
          <mxGeometry y="346" width="290" height="26" as="geometry" />
        </mxCell>
        <mxCell id="2lPDT9tBsX9n8PKWMI---33" value="MarcaViewModel" style="swimlane;fontStyle=1;align=center;verticalAlign=top;childLayout=stackLayout;horizontal=1;startSize=26;horizontalStack=0;resizeParent=1;resizeParentMax=0;resizeLast=0;collapsible=1;marginBottom=0;whiteSpace=wrap;html=1;" vertex="1" parent="v7loar4NtZiH1IZPTKfI-1">
          <mxGeometry x="1420" y="312" width="290" height="372" as="geometry" />
        </mxCell>
        <mxCell id="2lPDT9tBsX9n8PKWMI---34" value="+ Marcas: ObservableCollection" style="text;strokeColor=none;fillColor=none;align=left;verticalAlign=top;spacingLeft=4;spacingRight=4;overflow=hidden;rotatable=0;points=[[0,0.5],[1,0.5]];portConstraint=eastwest;whiteSpace=wrap;html=1;" vertex="1" parent="2lPDT9tBsX9n8PKWMI---33">
          <mxGeometry y="26" width="290" height="26" as="geometry" />
        </mxCell>
        <mxCell id="2lPDT9tBsX9n8PKWMI---35" value="+ GuardarCommand: ICommand" style="text;strokeColor=none;fillColor=none;align=left;verticalAlign=top;spacingLeft=4;spacingRight=4;overflow=hidden;rotatable=0;points=[[0,0.5],[1,0.5]];portConstraint=eastwest;whiteSpace=wrap;html=1;" vertex="1" parent="2lPDT9tBsX9n8PKWMI---33">
          <mxGeometry y="52" width="290" height="26" as="geometry" />
        </mxCell>
        <mxCell id="2lPDT9tBsX9n8PKWMI---36" value="+ EliminarCommand: ICommand" style="text;strokeColor=none;fillColor=none;align=left;verticalAlign=top;spacingLeft=4;spacingRight=4;overflow=hidden;rotatable=0;points=[[0,0.5],[1,0.5]];portConstraint=eastwest;whiteSpace=wrap;html=1;" vertex="1" parent="2lPDT9tBsX9n8PKWMI---33">
          <mxGeometry y="78" width="290" height="26" as="geometry" />
        </mxCell>
        <mxCell id="2lPDT9tBsX9n8PKWMI---37" value="+ AplicarFiltroCommand: ICommand" style="text;strokeColor=none;fillColor=none;align=left;verticalAlign=top;spacingLeft=4;spacingRight=4;overflow=hidden;rotatable=0;points=[[0,0.5],[1,0.5]];portConstraint=eastwest;whiteSpace=wrap;html=1;" vertex="1" parent="2lPDT9tBsX9n8PKWMI---33">
          <mxGeometry y="104" width="290" height="26" as="geometry" />
        </mxCell>
        <mxCell id="2lPDT9tBsX9n8PKWMI---38" value="+ LimpiarFiltroCommand: ICommand" style="text;strokeColor=none;fillColor=none;align=left;verticalAlign=top;spacingLeft=4;spacingRight=4;overflow=hidden;rotatable=0;points=[[0,0.5],[1,0.5]];portConstraint=eastwest;whiteSpace=wrap;html=1;" vertex="1" parent="2lPDT9tBsX9n8PKWMI---33">
          <mxGeometry y="130" width="290" height="26" as="geometry" />
        </mxCell>
        <mxCell id="2lPDT9tBsX9n8PKWMI---62" value="+ CargarMarcasCommand: ICommand" style="text;strokeColor=none;fillColor=none;align=left;verticalAlign=top;spacingLeft=4;spacingRight=4;overflow=hidden;rotatable=0;points=[[0,0.5],[1,0.5]];portConstraint=eastwest;whiteSpace=wrap;html=1;" vertex="1" parent="2lPDT9tBsX9n8PKWMI---33">
          <mxGeometry y="156" width="290" height="26" as="geometry" />
        </mxCell>
        <mxCell id="2lPDT9tBsX9n8PKWMI---39" value="+ MarcaSeleccionada: Marca" style="text;strokeColor=none;fillColor=none;align=left;verticalAlign=top;spacingLeft=4;spacingRight=4;overflow=hidden;rotatable=0;points=[[0,0.5],[1,0.5]];portConstraint=eastwest;whiteSpace=wrap;html=1;" vertex="1" parent="2lPDT9tBsX9n8PKWMI---33">
          <mxGeometry y="182" width="290" height="26" as="geometry" />
        </mxCell>
        <mxCell id="2lPDT9tBsX9n8PKWMI---40" value="+ ListaDeCampos: List&amp;lt;string&amp;gt;" style="text;strokeColor=none;fillColor=none;align=left;verticalAlign=top;spacingLeft=4;spacingRight=4;overflow=hidden;rotatable=0;points=[[0,0.5],[1,0.5]];portConstraint=eastwest;whiteSpace=wrap;html=1;" vertex="1" parent="2lPDT9tBsX9n8PKWMI---33">
          <mxGeometry y="208" width="290" height="26" as="geometry" />
        </mxCell>
        <mxCell id="2lPDT9tBsX9n8PKWMI---41" value="+ ListaDeCriterios: List&amp;lt;string&amp;gt;" style="text;strokeColor=none;fillColor=none;align=left;verticalAlign=top;spacingLeft=4;spacingRight=4;overflow=hidden;rotatable=0;points=[[0,0.5],[1,0.5]];portConstraint=eastwest;whiteSpace=wrap;html=1;" vertex="1" parent="2lPDT9tBsX9n8PKWMI---33">
          <mxGeometry y="234" width="290" height="26" as="geometry" />
        </mxCell>
        <mxCell id="2lPDT9tBsX9n8PKWMI---42" value="+ CampoSeleccionado: string" style="text;strokeColor=none;fillColor=none;align=left;verticalAlign=top;spacingLeft=4;spacingRight=4;overflow=hidden;rotatable=0;points=[[0,0.5],[1,0.5]];portConstraint=eastwest;whiteSpace=wrap;html=1;" vertex="1" parent="2lPDT9tBsX9n8PKWMI---33">
          <mxGeometry y="260" width="290" height="26" as="geometry" />
        </mxCell>
        <mxCell id="2lPDT9tBsX9n8PKWMI---43" value="+ CriterioSeleccionado: string" style="text;strokeColor=none;fillColor=none;align=left;verticalAlign=top;spacingLeft=4;spacingRight=4;overflow=hidden;rotatable=0;points=[[0,0.5],[1,0.5]];portConstraint=eastwest;whiteSpace=wrap;html=1;" vertex="1" parent="2lPDT9tBsX9n8PKWMI---33">
          <mxGeometry y="286" width="290" height="26" as="geometry" />
        </mxCell>
        <mxCell id="2lPDT9tBsX9n8PKWMI---44" value="+ ValorFiltro: string" style="text;strokeColor=none;fillColor=none;align=left;verticalAlign=top;spacingLeft=4;spacingRight=4;overflow=hidden;rotatable=0;points=[[0,0.5],[1,0.5]];portConstraint=eastwest;whiteSpace=wrap;html=1;" vertex="1" parent="2lPDT9tBsX9n8PKWMI---33">
          <mxGeometry y="312" width="290" height="26" as="geometry" />
        </mxCell>
        <mxCell id="2lPDT9tBsX9n8PKWMI---45" value="" style="line;strokeWidth=1;fillColor=none;align=left;verticalAlign=middle;spacingTop=-1;spacingLeft=3;spacingRight=3;rotatable=0;labelPosition=right;points=[];portConstraint=eastwest;strokeColor=inherit;" vertex="1" parent="2lPDT9tBsX9n8PKWMI---33">
          <mxGeometry y="338" width="290" height="8" as="geometry" />
        </mxCell>
        <mxCell id="2lPDT9tBsX9n8PKWMI---46" value="+ MarcaViewModel(IRepositorioMarca repo)" style="text;strokeColor=none;fillColor=none;align=left;verticalAlign=top;spacingLeft=4;spacingRight=4;overflow=hidden;rotatable=0;points=[[0,0.5],[1,0.5]];portConstraint=eastwest;whiteSpace=wrap;html=1;" vertex="1" parent="2lPDT9tBsX9n8PKWMI---33">
          <mxGeometry y="346" width="290" height="26" as="geometry" />
        </mxCell>
        <mxCell id="2lPDT9tBsX9n8PKWMI---47" value="CategoriaViewModel" style="swimlane;fontStyle=1;align=center;verticalAlign=top;childLayout=stackLayout;horizontal=1;startSize=26;horizontalStack=0;resizeParent=1;resizeParentMax=0;resizeLast=0;collapsible=1;marginBottom=0;whiteSpace=wrap;html=1;" vertex="1" parent="v7loar4NtZiH1IZPTKfI-1">
          <mxGeometry x="1420" y="722" width="290" height="372" as="geometry" />
        </mxCell>
        <mxCell id="2lPDT9tBsX9n8PKWMI---48" value="+ Categorias: ObservableCollection" style="text;strokeColor=none;fillColor=none;align=left;verticalAlign=top;spacingLeft=4;spacingRight=4;overflow=hidden;rotatable=0;points=[[0,0.5],[1,0.5]];portConstraint=eastwest;whiteSpace=wrap;html=1;" vertex="1" parent="2lPDT9tBsX9n8PKWMI---47">
          <mxGeometry y="26" width="290" height="26" as="geometry" />
        </mxCell>
        <mxCell id="2lPDT9tBsX9n8PKWMI---49" value="+ GuardarCommand: ICommand" style="text;strokeColor=none;fillColor=none;align=left;verticalAlign=top;spacingLeft=4;spacingRight=4;overflow=hidden;rotatable=0;points=[[0,0.5],[1,0.5]];portConstraint=eastwest;whiteSpace=wrap;html=1;" vertex="1" parent="2lPDT9tBsX9n8PKWMI---47">
          <mxGeometry y="52" width="290" height="26" as="geometry" />
        </mxCell>
        <mxCell id="2lPDT9tBsX9n8PKWMI---50" value="+ EliminarCommand: ICommand" style="text;strokeColor=none;fillColor=none;align=left;verticalAlign=top;spacingLeft=4;spacingRight=4;overflow=hidden;rotatable=0;points=[[0,0.5],[1,0.5]];portConstraint=eastwest;whiteSpace=wrap;html=1;" vertex="1" parent="2lPDT9tBsX9n8PKWMI---47">
          <mxGeometry y="78" width="290" height="26" as="geometry" />
        </mxCell>
        <mxCell id="2lPDT9tBsX9n8PKWMI---51" value="+ AplicarFiltroCommand: ICommand" style="text;strokeColor=none;fillColor=none;align=left;verticalAlign=top;spacingLeft=4;spacingRight=4;overflow=hidden;rotatable=0;points=[[0,0.5],[1,0.5]];portConstraint=eastwest;whiteSpace=wrap;html=1;" vertex="1" parent="2lPDT9tBsX9n8PKWMI---47">
          <mxGeometry y="104" width="290" height="26" as="geometry" />
        </mxCell>
        <mxCell id="2lPDT9tBsX9n8PKWMI---52" value="+ LimpiarFiltroCommand: ICommand" style="text;strokeColor=none;fillColor=none;align=left;verticalAlign=top;spacingLeft=4;spacingRight=4;overflow=hidden;rotatable=0;points=[[0,0.5],[1,0.5]];portConstraint=eastwest;whiteSpace=wrap;html=1;" vertex="1" parent="2lPDT9tBsX9n8PKWMI---47">
          <mxGeometry y="130" width="290" height="26" as="geometry" />
        </mxCell>
        <mxCell id="2lPDT9tBsX9n8PKWMI---53" value="+ CargarCategoriasCommand: ICommand" style="text;strokeColor=none;fillColor=none;align=left;verticalAlign=top;spacingLeft=4;spacingRight=4;overflow=hidden;rotatable=0;points=[[0,0.5],[1,0.5]];portConstraint=eastwest;whiteSpace=wrap;html=1;" vertex="1" parent="2lPDT9tBsX9n8PKWMI---47">
          <mxGeometry y="156" width="290" height="26" as="geometry" />
        </mxCell>
        <mxCell id="2lPDT9tBsX9n8PKWMI---61" value="+ CategoriaSeleccionada: Categoria" style="text;strokeColor=none;fillColor=none;align=left;verticalAlign=top;spacingLeft=4;spacingRight=4;overflow=hidden;rotatable=0;points=[[0,0.5],[1,0.5]];portConstraint=eastwest;whiteSpace=wrap;html=1;" vertex="1" parent="2lPDT9tBsX9n8PKWMI---47">
          <mxGeometry y="182" width="290" height="26" as="geometry" />
        </mxCell>
        <mxCell id="2lPDT9tBsX9n8PKWMI---54" value="+ ListaDeCampos: List&amp;lt;string&amp;gt;" style="text;strokeColor=none;fillColor=none;align=left;verticalAlign=top;spacingLeft=4;spacingRight=4;overflow=hidden;rotatable=0;points=[[0,0.5],[1,0.5]];portConstraint=eastwest;whiteSpace=wrap;html=1;" vertex="1" parent="2lPDT9tBsX9n8PKWMI---47">
          <mxGeometry y="208" width="290" height="26" as="geometry" />
        </mxCell>
        <mxCell id="2lPDT9tBsX9n8PKWMI---55" value="+ ListaDeCriterios: List&amp;lt;string&amp;gt;" style="text;strokeColor=none;fillColor=none;align=left;verticalAlign=top;spacingLeft=4;spacingRight=4;overflow=hidden;rotatable=0;points=[[0,0.5],[1,0.5]];portConstraint=eastwest;whiteSpace=wrap;html=1;" vertex="1" parent="2lPDT9tBsX9n8PKWMI---47">
          <mxGeometry y="234" width="290" height="26" as="geometry" />
        </mxCell>
        <mxCell id="2lPDT9tBsX9n8PKWMI---56" value="+ CampoSeleccionado: string" style="text;strokeColor=none;fillColor=none;align=left;verticalAlign=top;spacingLeft=4;spacingRight=4;overflow=hidden;rotatable=0;points=[[0,0.5],[1,0.5]];portConstraint=eastwest;whiteSpace=wrap;html=1;" vertex="1" parent="2lPDT9tBsX9n8PKWMI---47">
          <mxGeometry y="260" width="290" height="26" as="geometry" />
        </mxCell>
        <mxCell id="2lPDT9tBsX9n8PKWMI---57" value="+ CriterioSeleccionado: string" style="text;strokeColor=none;fillColor=none;align=left;verticalAlign=top;spacingLeft=4;spacingRight=4;overflow=hidden;rotatable=0;points=[[0,0.5],[1,0.5]];portConstraint=eastwest;whiteSpace=wrap;html=1;" vertex="1" parent="2lPDT9tBsX9n8PKWMI---47">
          <mxGeometry y="286" width="290" height="26" as="geometry" />
        </mxCell>
        <mxCell id="2lPDT9tBsX9n8PKWMI---58" value="+ ValorFiltro: string" style="text;strokeColor=none;fillColor=none;align=left;verticalAlign=top;spacingLeft=4;spacingRight=4;overflow=hidden;rotatable=0;points=[[0,0.5],[1,0.5]];portConstraint=eastwest;whiteSpace=wrap;html=1;" vertex="1" parent="2lPDT9tBsX9n8PKWMI---47">
          <mxGeometry y="312" width="290" height="26" as="geometry" />
        </mxCell>
        <mxCell id="2lPDT9tBsX9n8PKWMI---59" value="" style="line;strokeWidth=1;fillColor=none;align=left;verticalAlign=middle;spacingTop=-1;spacingLeft=3;spacingRight=3;rotatable=0;labelPosition=right;points=[];portConstraint=eastwest;strokeColor=inherit;" vertex="1" parent="2lPDT9tBsX9n8PKWMI---47">
          <mxGeometry y="338" width="290" height="8" as="geometry" />
        </mxCell>
        <mxCell id="2lPDT9tBsX9n8PKWMI---60" value="+ CategoriaViewModel(IRepositorioCategoria repo)" style="text;strokeColor=none;fillColor=none;align=left;verticalAlign=top;spacingLeft=4;spacingRight=4;overflow=hidden;rotatable=0;points=[[0,0.5],[1,0.5]];portConstraint=eastwest;whiteSpace=wrap;html=1;" vertex="1" parent="2lPDT9tBsX9n8PKWMI---47">
          <mxGeometry y="346" width="290" height="26" as="geometry" />
        </mxCell>
        <mxCell id="2lPDT9tBsX9n8PKWMI---64" value="&lt;p style=&quot;margin:0px;margin-top:4px;text-align:center;&quot;&gt;&lt;i&gt;&amp;lt;&amp;lt;Interface&amp;gt;&amp;gt;&lt;/i&gt;&lt;br&gt;&lt;b&gt;IRepositorioArticulo&lt;/b&gt;&lt;/p&gt;&lt;hr size=&quot;1&quot; style=&quot;border-style:solid;&quot;&gt;&lt;p style=&quot;margin:0px;margin-left:4px;&quot;&gt;&lt;br&gt;&lt;/p&gt;&lt;hr size=&quot;1&quot; style=&quot;border-style:solid;&quot;&gt;&lt;p style=&quot;margin:0px;margin-left:4px;&quot;&gt;+ Listar(): IEnumerable&lt;br&gt;+ Agregar(Articulo): void&lt;/p&gt;&lt;p style=&quot;margin:0px;margin-left:4px;&quot;&gt;+ Actualizar&lt;span style=&quot;background-color: transparent; color: light-dark(rgb(0, 0, 0), rgb(255, 255, 255));&quot;&gt;(Articulo): void&lt;/span&gt;&lt;/p&gt;&lt;p style=&quot;margin:0px;margin-left:4px;&quot;&gt;&lt;span style=&quot;background-color: transparent; color: light-dark(rgb(0, 0, 0), rgb(255, 255, 255));&quot;&gt;+Eliminar(id): void&lt;/span&gt;&lt;/p&gt;" style="verticalAlign=top;align=left;overflow=fill;html=1;whiteSpace=wrap;" vertex="1" parent="v7loar4NtZiH1IZPTKfI-1">
          <mxGeometry x="2740" y="-30" width="190" height="140" as="geometry" />
        </mxCell>
        <mxCell id="2lPDT9tBsX9n8PKWMI---65" value="&lt;p style=&quot;margin:0px;margin-top:4px;text-align:center;&quot;&gt;&lt;i&gt;&amp;lt;&amp;lt;Interface&amp;gt;&amp;gt;&lt;/i&gt;&lt;br&gt;&lt;b&gt;IRepositorioMarca&lt;/b&gt;&lt;/p&gt;&lt;hr size=&quot;1&quot; style=&quot;border-style:solid;&quot;&gt;&lt;p style=&quot;margin:0px;margin-left:4px;&quot;&gt;&lt;br&gt;&lt;/p&gt;&lt;hr size=&quot;1&quot; style=&quot;border-style:solid;&quot;&gt;&lt;p style=&quot;margin:0px;margin-left:4px;&quot;&gt;+ Listar(): IEnumerable&lt;br&gt;+ Agregar(Marca): void&lt;/p&gt;&lt;p style=&quot;margin:0px;margin-left:4px;&quot;&gt;+ Actualizar&lt;span style=&quot;background-color: transparent; color: light-dark(rgb(0, 0, 0), rgb(255, 255, 255));&quot;&gt;(Marca): void&lt;/span&gt;&lt;/p&gt;&lt;p style=&quot;margin:0px;margin-left:4px;&quot;&gt;&lt;span style=&quot;background-color: transparent; color: light-dark(rgb(0, 0, 0), rgb(255, 255, 255));&quot;&gt;+Eliminar(id): void&lt;/span&gt;&lt;/p&gt;" style="verticalAlign=top;align=left;overflow=fill;html=1;whiteSpace=wrap;" vertex="1" parent="v7loar4NtZiH1IZPTKfI-1">
          <mxGeometry x="2700" y="478" width="190" height="140" as="geometry" />
        </mxCell>
        <mxCell id="2lPDT9tBsX9n8PKWMI---66" value="&lt;p style=&quot;margin:0px;margin-top:4px;text-align:center;&quot;&gt;&lt;i&gt;&amp;lt;&amp;lt;Interface&amp;gt;&amp;gt;&lt;/i&gt;&lt;br&gt;&lt;b&gt;IRepositorioCategoria&lt;/b&gt;&lt;/p&gt;&lt;hr size=&quot;1&quot; style=&quot;border-style:solid;&quot;&gt;&lt;p style=&quot;margin:0px;margin-left:4px;&quot;&gt;&lt;br&gt;&lt;/p&gt;&lt;hr size=&quot;1&quot; style=&quot;border-style:solid;&quot;&gt;&lt;p style=&quot;margin:0px;margin-left:4px;&quot;&gt;+ Listar(): IEnumerable&lt;br&gt;+ Agregar(Categoria): void&lt;/p&gt;&lt;p style=&quot;margin:0px;margin-left:4px;&quot;&gt;+ Actualizar&lt;span style=&quot;background-color: transparent; color: light-dark(rgb(0, 0, 0), rgb(255, 255, 255));&quot;&gt;(Categoria): void&lt;/span&gt;&lt;/p&gt;&lt;p style=&quot;margin:0px;margin-left:4px;&quot;&gt;&lt;span style=&quot;background-color: transparent; color: light-dark(rgb(0, 0, 0), rgb(255, 255, 255));&quot;&gt;+Eliminar(id): void&lt;/span&gt;&lt;/p&gt;" style="verticalAlign=top;align=left;overflow=fill;html=1;whiteSpace=wrap;" vertex="1" parent="v7loar4NtZiH1IZPTKfI-1">
          <mxGeometry x="2710" y="800" width="190" height="140" as="geometry" />
        </mxCell>
        <mxCell id="2lPDT9tBsX9n8PKWMI---67" value="Marca" style="swimlane;fontStyle=0;childLayout=stackLayout;horizontal=1;startSize=26;fillColor=none;horizontalStack=0;resizeParent=1;resizeParentMax=0;resizeLast=0;collapsible=1;marginBottom=0;whiteSpace=wrap;html=1;" vertex="1" parent="v7loar4NtZiH1IZPTKfI-1">
          <mxGeometry x="-750" y="-160" width="140" height="78" as="geometry" />
        </mxCell>
        <mxCell id="2lPDT9tBsX9n8PKWMI---68" value="+ Id: int" style="text;strokeColor=none;fillColor=none;align=left;verticalAlign=top;spacingLeft=4;spacingRight=4;overflow=hidden;rotatable=0;points=[[0,0.5],[1,0.5]];portConstraint=eastwest;whiteSpace=wrap;html=1;" vertex="1" parent="2lPDT9tBsX9n8PKWMI---67">
          <mxGeometry y="26" width="140" height="26" as="geometry" />
        </mxCell>
        <mxCell id="2lPDT9tBsX9n8PKWMI---69" value="+ Descripcion: string" style="text;strokeColor=none;fillColor=none;align=left;verticalAlign=top;spacingLeft=4;spacingRight=4;overflow=hidden;rotatable=0;points=[[0,0.5],[1,0.5]];portConstraint=eastwest;whiteSpace=wrap;html=1;" vertex="1" parent="2lPDT9tBsX9n8PKWMI---67">
          <mxGeometry y="52" width="140" height="26" as="geometry" />
        </mxCell>
        <mxCell id="2lPDT9tBsX9n8PKWMI---75" value="Articulo" style="swimlane;fontStyle=0;childLayout=stackLayout;horizontal=1;startSize=26;fillColor=none;horizontalStack=0;resizeParent=1;resizeParentMax=0;resizeLast=0;collapsible=1;marginBottom=0;whiteSpace=wrap;html=1;" vertex="1" parent="v7loar4NtZiH1IZPTKfI-1">
          <mxGeometry x="-470" y="-130" width="140" height="156" as="geometry" />
        </mxCell>
        <mxCell id="2lPDT9tBsX9n8PKWMI---76" value="+ Id: int" style="text;strokeColor=none;fillColor=none;align=left;verticalAlign=top;spacingLeft=4;spacingRight=4;overflow=hidden;rotatable=0;points=[[0,0.5],[1,0.5]];portConstraint=eastwest;whiteSpace=wrap;html=1;" vertex="1" parent="2lPDT9tBsX9n8PKWMI---75">
          <mxGeometry y="26" width="140" height="26" as="geometry" />
        </mxCell>
        <mxCell id="2lPDT9tBsX9n8PKWMI---77" value="+ Codigo: string" style="text;strokeColor=none;fillColor=none;align=left;verticalAlign=top;spacingLeft=4;spacingRight=4;overflow=hidden;rotatable=0;points=[[0,0.5],[1,0.5]];portConstraint=eastwest;whiteSpace=wrap;html=1;" vertex="1" parent="2lPDT9tBsX9n8PKWMI---75">
          <mxGeometry y="52" width="140" height="26" as="geometry" />
        </mxCell>
        <mxCell id="2lPDT9tBsX9n8PKWMI---82" value="+ Nombre: string" style="text;strokeColor=none;fillColor=none;align=left;verticalAlign=top;spacingLeft=4;spacingRight=4;overflow=hidden;rotatable=0;points=[[0,0.5],[1,0.5]];portConstraint=eastwest;whiteSpace=wrap;html=1;" vertex="1" parent="2lPDT9tBsX9n8PKWMI---75">
          <mxGeometry y="78" width="140" height="26" as="geometry" />
        </mxCell>
        <mxCell id="2lPDT9tBsX9n8PKWMI---83" value="+ Descripcion: string" style="text;strokeColor=none;fillColor=none;align=left;verticalAlign=top;spacingLeft=4;spacingRight=4;overflow=hidden;rotatable=0;points=[[0,0.5],[1,0.5]];portConstraint=eastwest;whiteSpace=wrap;html=1;" vertex="1" parent="2lPDT9tBsX9n8PKWMI---75">
          <mxGeometry y="104" width="140" height="26" as="geometry" />
        </mxCell>
        <mxCell id="2lPDT9tBsX9n8PKWMI---84" value="+ Precio: decimal" style="text;strokeColor=none;fillColor=none;align=left;verticalAlign=top;spacingLeft=4;spacingRight=4;overflow=hidden;rotatable=0;points=[[0,0.5],[1,0.5]];portConstraint=eastwest;whiteSpace=wrap;html=1;" vertex="1" parent="2lPDT9tBsX9n8PKWMI---75">
          <mxGeometry y="130" width="140" height="26" as="geometry" />
        </mxCell>
        <mxCell id="2lPDT9tBsX9n8PKWMI---79" value="Categoria" style="swimlane;fontStyle=0;childLayout=stackLayout;horizontal=1;startSize=26;fillColor=none;horizontalStack=0;resizeParent=1;resizeParentMax=0;resizeLast=0;collapsible=1;marginBottom=0;whiteSpace=wrap;html=1;" vertex="1" parent="v7loar4NtZiH1IZPTKfI-1">
          <mxGeometry x="-750" width="140" height="78" as="geometry" />
        </mxCell>
        <mxCell id="2lPDT9tBsX9n8PKWMI---80" value="+ Id: int" style="text;strokeColor=none;fillColor=none;align=left;verticalAlign=top;spacingLeft=4;spacingRight=4;overflow=hidden;rotatable=0;points=[[0,0.5],[1,0.5]];portConstraint=eastwest;whiteSpace=wrap;html=1;" vertex="1" parent="2lPDT9tBsX9n8PKWMI---79">
          <mxGeometry y="26" width="140" height="26" as="geometry" />
        </mxCell>
        <mxCell id="2lPDT9tBsX9n8PKWMI---81" value="+ Descripcion: string" style="text;strokeColor=none;fillColor=none;align=left;verticalAlign=top;spacingLeft=4;spacingRight=4;overflow=hidden;rotatable=0;points=[[0,0.5],[1,0.5]];portConstraint=eastwest;whiteSpace=wrap;html=1;" vertex="1" parent="2lPDT9tBsX9n8PKWMI---79">
          <mxGeometry y="52" width="140" height="26" as="geometry" />
        </mxCell>
        <mxCell id="2lPDT9tBsX9n8PKWMI---85" value="Imagen" style="swimlane;fontStyle=0;childLayout=stackLayout;horizontal=1;startSize=26;fillColor=none;horizontalStack=0;resizeParent=1;resizeParentMax=0;resizeLast=0;collapsible=1;marginBottom=0;whiteSpace=wrap;html=1;" vertex="1" parent="v7loar4NtZiH1IZPTKfI-1">
          <mxGeometry x="-190" y="-92" width="140" height="78" as="geometry" />
        </mxCell>
        <mxCell id="2lPDT9tBsX9n8PKWMI---86" value="+ Id: int" style="text;strokeColor=none;fillColor=none;align=left;verticalAlign=top;spacingLeft=4;spacingRight=4;overflow=hidden;rotatable=0;points=[[0,0.5],[1,0.5]];portConstraint=eastwest;whiteSpace=wrap;html=1;" vertex="1" parent="2lPDT9tBsX9n8PKWMI---85">
          <mxGeometry y="26" width="140" height="26" as="geometry" />
        </mxCell>
        <mxCell id="2lPDT9tBsX9n8PKWMI---87" value="+ Url: string" style="text;strokeColor=none;fillColor=none;align=left;verticalAlign=top;spacingLeft=4;spacingRight=4;overflow=hidden;rotatable=0;points=[[0,0.5],[1,0.5]];portConstraint=eastwest;whiteSpace=wrap;html=1;" vertex="1" parent="2lPDT9tBsX9n8PKWMI---85">
          <mxGeometry y="52" width="140" height="26" as="geometry" />
        </mxCell>
        <mxCell id="2lPDT9tBsX9n8PKWMI---88" value="" style="endArrow=diamondThin;endFill=0;endSize=24;html=1;rounded=0;entryX=1.017;entryY=0.846;entryDx=0;entryDy=0;exitX=0;exitY=0.923;exitDx=0;exitDy=0;exitPerimeter=0;entryPerimeter=0;" edge="1" parent="v7loar4NtZiH1IZPTKfI-1" source="2lPDT9tBsX9n8PKWMI---76" target="2lPDT9tBsX9n8PKWMI---68">
          <mxGeometry width="160" relative="1" as="geometry">
            <mxPoint x="-610" y="-100" as="sourcePoint" />
            <mxPoint x="-450" y="-100" as="targetPoint" />
          </mxGeometry>
        </mxCell>
        <mxCell id="2lPDT9tBsX9n8PKWMI---90" value="tiene" style="edgeLabel;html=1;align=center;verticalAlign=middle;resizable=0;points=[];" vertex="1" connectable="0" parent="2lPDT9tBsX9n8PKWMI---88">
          <mxGeometry x="-0.015" relative="1" as="geometry">
            <mxPoint as="offset" />
          </mxGeometry>
        </mxCell>
        <mxCell id="2lPDT9tBsX9n8PKWMI---92" value="1" style="edgeLabel;html=1;align=center;verticalAlign=middle;resizable=0;points=[];" vertex="1" connectable="0" parent="2lPDT9tBsX9n8PKWMI---88">
          <mxGeometry x="0.906" y="-1" relative="1" as="geometry">
            <mxPoint x="-4" y="-9" as="offset" />
          </mxGeometry>
        </mxCell>
        <mxCell id="2lPDT9tBsX9n8PKWMI---93" value="many" style="edgeLabel;html=1;align=center;verticalAlign=middle;resizable=0;points=[];" vertex="1" connectable="0" parent="2lPDT9tBsX9n8PKWMI---88">
          <mxGeometry x="-0.8794" y="-1" relative="1" as="geometry">
            <mxPoint x="-8" y="-10" as="offset" />
          </mxGeometry>
        </mxCell>
        <mxCell id="2lPDT9tBsX9n8PKWMI---89" value="" style="endArrow=diamondThin;endFill=0;endSize=24;html=1;rounded=0;entryX=1;entryY=0.25;entryDx=0;entryDy=0;exitX=-0.02;exitY=0.692;exitDx=0;exitDy=0;exitPerimeter=0;" edge="1" parent="v7loar4NtZiH1IZPTKfI-1" source="2lPDT9tBsX9n8PKWMI---83" target="2lPDT9tBsX9n8PKWMI---79">
          <mxGeometry width="160" relative="1" as="geometry">
            <mxPoint x="-600" y="50" as="sourcePoint" />
            <mxPoint x="-500" y="59" as="targetPoint" />
          </mxGeometry>
        </mxCell>
        <mxCell id="2lPDT9tBsX9n8PKWMI---91" value="tiene" style="edgeLabel;html=1;align=center;verticalAlign=middle;resizable=0;points=[];" vertex="1" connectable="0" parent="2lPDT9tBsX9n8PKWMI---89">
          <mxGeometry x="-0.1406" y="1" relative="1" as="geometry">
            <mxPoint as="offset" />
          </mxGeometry>
        </mxCell>
        <mxCell id="2lPDT9tBsX9n8PKWMI---94" value="many" style="edgeLabel;html=1;align=center;verticalAlign=middle;resizable=0;points=[];" vertex="1" connectable="0" parent="v7loar4NtZiH1IZPTKfI-1">
          <mxGeometry x="-486" y="-14" as="geometry" />
        </mxCell>
        <mxCell id="2lPDT9tBsX9n8PKWMI---95" value="1" style="edgeLabel;html=1;align=center;verticalAlign=middle;resizable=0;points=[];" vertex="1" connectable="0" parent="v7loar4NtZiH1IZPTKfI-1">
          <mxGeometry x="-593" y="-116" as="geometry">
            <mxPoint x="-12" y="120" as="offset" />
          </mxGeometry>
        </mxCell>
        <mxCell id="2lPDT9tBsX9n8PKWMI---97" value="1" style="endArrow=open;html=1;endSize=12;startArrow=diamondThin;startSize=14;startFill=1;edgeStyle=orthogonalEdgeStyle;align=left;verticalAlign=bottom;rounded=0;exitX=0.991;exitY=0.108;exitDx=0;exitDy=0;exitPerimeter=0;entryX=-0.011;entryY=0.723;entryDx=0;entryDy=0;entryPerimeter=0;" edge="1" parent="v7loar4NtZiH1IZPTKfI-1" source="2lPDT9tBsX9n8PKWMI---82" target="2lPDT9tBsX9n8PKWMI---86">
          <mxGeometry x="-1" y="3" relative="1" as="geometry">
            <mxPoint x="-330" y="-50" as="sourcePoint" />
            <mxPoint x="-170" y="-50" as="targetPoint" />
          </mxGeometry>
        </mxCell>
        <mxCell id="2lPDT9tBsX9n8PKWMI---98" value="many" style="edgeLabel;html=1;align=center;verticalAlign=middle;resizable=0;points=[];" vertex="1" connectable="0" parent="2lPDT9tBsX9n8PKWMI---97">
          <mxGeometry x="0.7839" relative="1" as="geometry">
            <mxPoint x="1" y="-19" as="offset" />
          </mxGeometry>
        </mxCell>
        <mxCell id="2lPDT9tBsX9n8PKWMI---99" value="contiene" style="edgeLabel;html=1;align=center;verticalAlign=middle;resizable=0;points=[];" vertex="1" connectable="0" parent="2lPDT9tBsX9n8PKWMI---97">
          <mxGeometry x="-0.0395" y="1" relative="1" as="geometry">
            <mxPoint as="offset" />
          </mxGeometry>
        </mxCell>
        <mxCell id="2lPDT9tBsX9n8PKWMI---101" value="&lt;p style=&quot;margin:0px;margin-top:4px;text-align:center;&quot;&gt;&lt;i&gt;&amp;lt;&amp;lt;Interface&amp;gt;&amp;gt;&lt;/i&gt;&lt;br&gt;&lt;b&gt;IConfiguracion&lt;/b&gt;&lt;/p&gt;&lt;hr size=&quot;1&quot; style=&quot;border-style:solid;&quot;&gt;&lt;p style=&quot;margin:0px;margin-left:4px;&quot;&gt;&lt;br&gt;&lt;/p&gt;&lt;hr size=&quot;1&quot; style=&quot;border-style:solid;&quot;&gt;&lt;p style=&quot;margin:0px;margin-left:4px;&quot;&gt;+ GetConnectionString(): string&lt;br&gt;&lt;/p&gt;" style="verticalAlign=top;align=left;overflow=fill;html=1;whiteSpace=wrap;" vertex="1" parent="v7loar4NtZiH1IZPTKfI-1">
          <mxGeometry x="2700" y="272" width="220" height="94" as="geometry" />
        </mxCell>
        <mxCell id="2lPDT9tBsX9n8PKWMI---103" value="RepositorioArticuloSQL" style="swimlane;fontStyle=1;align=center;verticalAlign=top;childLayout=stackLayout;horizontal=1;startSize=26;horizontalStack=0;resizeParent=1;resizeParentMax=0;resizeLast=0;collapsible=1;marginBottom=0;whiteSpace=wrap;html=1;" vertex="1" parent="v7loar4NtZiH1IZPTKfI-1">
          <mxGeometry x="2220" y="110" width="340" height="60" as="geometry" />
        </mxCell>
        <mxCell id="2lPDT9tBsX9n8PKWMI---105" value="" style="line;strokeWidth=1;fillColor=none;align=left;verticalAlign=middle;spacingTop=-1;spacingLeft=3;spacingRight=3;rotatable=0;labelPosition=right;points=[];portConstraint=eastwest;strokeColor=inherit;" vertex="1" parent="2lPDT9tBsX9n8PKWMI---103">
          <mxGeometry y="26" width="340" height="8" as="geometry" />
        </mxCell>
        <mxCell id="2lPDT9tBsX9n8PKWMI---106" value="+ RepositorioArticuloSQL(IConfiguration config): void" style="text;strokeColor=none;fillColor=none;align=left;verticalAlign=top;spacingLeft=4;spacingRight=4;overflow=hidden;rotatable=0;points=[[0,0.5],[1,0.5]];portConstraint=eastwest;whiteSpace=wrap;html=1;" vertex="1" parent="2lPDT9tBsX9n8PKWMI---103">
          <mxGeometry y="34" width="340" height="26" as="geometry" />
        </mxCell>
        <mxCell id="2lPDT9tBsX9n8PKWMI---107" value="RepositorioMarcaSQL" style="swimlane;fontStyle=1;align=center;verticalAlign=top;childLayout=stackLayout;horizontal=1;startSize=26;horizontalStack=0;resizeParent=1;resizeParentMax=0;resizeLast=0;collapsible=1;marginBottom=0;whiteSpace=wrap;html=1;" vertex="1" parent="v7loar4NtZiH1IZPTKfI-1">
          <mxGeometry x="2190" y="320" width="340" height="60" as="geometry" />
        </mxCell>
        <mxCell id="2lPDT9tBsX9n8PKWMI---108" value="" style="line;strokeWidth=1;fillColor=none;align=left;verticalAlign=middle;spacingTop=-1;spacingLeft=3;spacingRight=3;rotatable=0;labelPosition=right;points=[];portConstraint=eastwest;strokeColor=inherit;" vertex="1" parent="2lPDT9tBsX9n8PKWMI---107">
          <mxGeometry y="26" width="340" height="8" as="geometry" />
        </mxCell>
        <mxCell id="2lPDT9tBsX9n8PKWMI---109" value="+&amp;nbsp;&lt;span style=&quot;font-weight: 700; text-align: center;&quot;&gt;RepositorioMarcaSQL&lt;/span&gt;(IConfiguration config): void" style="text;strokeColor=none;fillColor=none;align=left;verticalAlign=top;spacingLeft=4;spacingRight=4;overflow=hidden;rotatable=0;points=[[0,0.5],[1,0.5]];portConstraint=eastwest;whiteSpace=wrap;html=1;" vertex="1" parent="2lPDT9tBsX9n8PKWMI---107">
          <mxGeometry y="34" width="340" height="26" as="geometry" />
        </mxCell>
        <mxCell id="2lPDT9tBsX9n8PKWMI---110" value="RepositorioCategoriaSQL" style="swimlane;fontStyle=1;align=center;verticalAlign=top;childLayout=stackLayout;horizontal=1;startSize=26;horizontalStack=0;resizeParent=1;resizeParentMax=0;resizeLast=0;collapsible=1;marginBottom=0;whiteSpace=wrap;html=1;" vertex="1" parent="v7loar4NtZiH1IZPTKfI-1">
          <mxGeometry x="2250" y="676" width="340" height="60" as="geometry" />
        </mxCell>
        <mxCell id="2lPDT9tBsX9n8PKWMI---111" value="" style="line;strokeWidth=1;fillColor=none;align=left;verticalAlign=middle;spacingTop=-1;spacingLeft=3;spacingRight=3;rotatable=0;labelPosition=right;points=[];portConstraint=eastwest;strokeColor=inherit;" vertex="1" parent="2lPDT9tBsX9n8PKWMI---110">
          <mxGeometry y="26" width="340" height="8" as="geometry" />
        </mxCell>
        <mxCell id="2lPDT9tBsX9n8PKWMI---112" value="+&amp;nbsp;&lt;span style=&quot;font-weight: 700; text-align: center;&quot;&gt;RepositorioCategoriaSQL&lt;/span&gt;(IConfiguration config): void" style="text;strokeColor=none;fillColor=none;align=left;verticalAlign=top;spacingLeft=4;spacingRight=4;overflow=hidden;rotatable=0;points=[[0,0.5],[1,0.5]];portConstraint=eastwest;whiteSpace=wrap;html=1;" vertex="1" parent="2lPDT9tBsX9n8PKWMI---110">
          <mxGeometry y="34" width="340" height="26" as="geometry" />
        </mxCell>
        <mxCell id="2lPDT9tBsX9n8PKWMI---113" value="Use" style="endArrow=open;endSize=12;dashed=1;html=1;rounded=0;exitX=1.012;exitY=0.179;exitDx=0;exitDy=0;exitPerimeter=0;entryX=0;entryY=0.5;entryDx=0;entryDy=0;" edge="1" parent="v7loar4NtZiH1IZPTKfI-1" source="2lPDT9tBsX9n8PKWMI---106" target="2lPDT9tBsX9n8PKWMI---101">
          <mxGeometry width="160" relative="1" as="geometry">
            <mxPoint x="2430" y="180" as="sourcePoint" />
            <mxPoint x="2590" y="180" as="targetPoint" />
          </mxGeometry>
        </mxCell>
        <mxCell id="2lPDT9tBsX9n8PKWMI---114" value="Use" style="endArrow=open;endSize=12;dashed=1;html=1;rounded=0;exitX=1;exitY=0.25;exitDx=0;exitDy=0;entryX=-0.02;entryY=0.636;entryDx=0;entryDy=0;entryPerimeter=0;" edge="1" parent="v7loar4NtZiH1IZPTKfI-1" source="2lPDT9tBsX9n8PKWMI---107" target="2lPDT9tBsX9n8PKWMI---101">
          <mxGeometry width="160" relative="1" as="geometry">
            <mxPoint x="2510" y="320" as="sourcePoint" />
            <mxPoint x="2656" y="428" as="targetPoint" />
          </mxGeometry>
        </mxCell>
        <mxCell id="2lPDT9tBsX9n8PKWMI---115" value="Use" style="endArrow=open;endSize=12;dashed=1;html=1;rounded=0;exitX=1;exitY=0.5;exitDx=0;exitDy=0;entryX=0;entryY=0.75;entryDx=0;entryDy=0;" edge="1" parent="v7loar4NtZiH1IZPTKfI-1" source="2lPDT9tBsX9n8PKWMI---110" target="2lPDT9tBsX9n8PKWMI---101">
          <mxGeometry width="160" relative="1" as="geometry">
            <mxPoint x="2460" y="550" as="sourcePoint" />
            <mxPoint x="2606" y="658" as="targetPoint" />
          </mxGeometry>
        </mxCell>
        <mxCell id="2lPDT9tBsX9n8PKWMI---116" value="" style="endArrow=block;dashed=1;endFill=0;endSize=12;html=1;rounded=0;exitX=1;exitY=0.167;exitDx=0;exitDy=0;exitPerimeter=0;entryX=0;entryY=0.5;entryDx=0;entryDy=0;" edge="1" parent="v7loar4NtZiH1IZPTKfI-1" source="2lPDT9tBsX9n8PKWMI---103" target="2lPDT9tBsX9n8PKWMI---64">
          <mxGeometry width="160" relative="1" as="geometry">
            <mxPoint x="2440" y="160" as="sourcePoint" />
            <mxPoint x="2600" y="160" as="targetPoint" />
          </mxGeometry>
        </mxCell>
        <mxCell id="2lPDT9tBsX9n8PKWMI---121" value="implements" style="edgeLabel;html=1;align=center;verticalAlign=middle;resizable=0;points=[];" vertex="1" connectable="0" parent="2lPDT9tBsX9n8PKWMI---116">
          <mxGeometry x="-0.0183" y="2" relative="1" as="geometry">
            <mxPoint y="-1" as="offset" />
          </mxGeometry>
        </mxCell>
        <mxCell id="2lPDT9tBsX9n8PKWMI---117" value="" style="endArrow=block;dashed=1;endFill=0;endSize=12;html=1;rounded=0;exitX=1;exitY=0.5;exitDx=0;exitDy=0;entryX=-0.02;entryY=0.368;entryDx=0;entryDy=0;entryPerimeter=0;" edge="1" parent="v7loar4NtZiH1IZPTKfI-1" source="2lPDT9tBsX9n8PKWMI---109" target="2lPDT9tBsX9n8PKWMI---65">
          <mxGeometry width="160" relative="1" as="geometry">
            <mxPoint x="2440" y="350" as="sourcePoint" />
            <mxPoint x="2590" y="330" as="targetPoint" />
          </mxGeometry>
        </mxCell>
        <mxCell id="2lPDT9tBsX9n8PKWMI---120" value="implements" style="edgeLabel;html=1;align=center;verticalAlign=middle;resizable=0;points=[];" vertex="1" connectable="0" parent="2lPDT9tBsX9n8PKWMI---117">
          <mxGeometry x="-0.0923" y="1" relative="1" as="geometry">
            <mxPoint y="1" as="offset" />
          </mxGeometry>
        </mxCell>
        <mxCell id="2lPDT9tBsX9n8PKWMI---118" value="" style="endArrow=block;dashed=1;endFill=0;endSize=12;html=1;rounded=0;exitX=1;exitY=0.5;exitDx=0;exitDy=0;entryX=0;entryY=0.5;entryDx=0;entryDy=0;" edge="1" parent="v7loar4NtZiH1IZPTKfI-1" source="2lPDT9tBsX9n8PKWMI---112" target="2lPDT9tBsX9n8PKWMI---66">
          <mxGeometry width="160" relative="1" as="geometry">
            <mxPoint x="2410" y="620" as="sourcePoint" />
            <mxPoint x="2560" y="600" as="targetPoint" />
          </mxGeometry>
        </mxCell>
        <mxCell id="2lPDT9tBsX9n8PKWMI---119" value="implements" style="edgeLabel;html=1;align=center;verticalAlign=middle;resizable=0;points=[];" vertex="1" connectable="0" parent="2lPDT9tBsX9n8PKWMI---118">
          <mxGeometry x="-0.0099" y="2" relative="1" as="geometry">
            <mxPoint as="offset" />
          </mxGeometry>
        </mxCell>
        <mxCell id="2lPDT9tBsX9n8PKWMI---122" value="Use" style="endArrow=open;endSize=12;dashed=1;html=1;rounded=0;exitX=1;exitY=0.5;exitDx=0;exitDy=0;entryX=0;entryY=0.25;entryDx=0;entryDy=0;" edge="1" parent="v7loar4NtZiH1IZPTKfI-1" source="2lPDT9tBsX9n8PKWMI---30" target="2lPDT9tBsX9n8PKWMI---64">
          <mxGeometry width="160" relative="1" as="geometry">
            <mxPoint x="1330" y="20" as="sourcePoint" />
            <mxPoint x="1490" y="20" as="targetPoint" />
          </mxGeometry>
        </mxCell>
        <mxCell id="2lPDT9tBsX9n8PKWMI---123" value="Use" style="endArrow=open;endSize=12;dashed=1;html=1;rounded=0;entryX=0.004;entryY=0.61;entryDx=0;entryDy=0;entryPerimeter=0;" edge="1" parent="v7loar4NtZiH1IZPTKfI-1" source="2lPDT9tBsX9n8PKWMI---46" target="2lPDT9tBsX9n8PKWMI---65">
          <mxGeometry width="160" relative="1" as="geometry">
            <mxPoint x="1350" y="280" as="sourcePoint" />
            <mxPoint x="1960" y="328" as="targetPoint" />
          </mxGeometry>
        </mxCell>
        <mxCell id="2lPDT9tBsX9n8PKWMI---124" value="Use" style="endArrow=open;endSize=12;dashed=1;html=1;rounded=0;exitX=1;exitY=0.5;exitDx=0;exitDy=0;entryX=0;entryY=0.75;entryDx=0;entryDy=0;" edge="1" parent="v7loar4NtZiH1IZPTKfI-1" source="2lPDT9tBsX9n8PKWMI---49" target="2lPDT9tBsX9n8PKWMI---66">
          <mxGeometry width="160" relative="1" as="geometry">
            <mxPoint x="1340" y="760" as="sourcePoint" />
            <mxPoint x="1950" y="808" as="targetPoint" />
          </mxGeometry>
        </mxCell>
        <mxCell id="2lPDT9tBsX9n8PKWMI---125" value="MainViewModel" style="swimlane;fontStyle=1;align=center;verticalAlign=top;childLayout=stackLayout;horizontal=1;startSize=26;horizontalStack=0;resizeParent=1;resizeParentMax=0;resizeLast=0;collapsible=1;marginBottom=0;whiteSpace=wrap;html=1;" vertex="1" parent="v7loar4NtZiH1IZPTKfI-1">
          <mxGeometry x="510" y="450" width="310" height="112" as="geometry" />
        </mxCell>
        <mxCell id="2lPDT9tBsX9n8PKWMI---126" value="+ NavegarAArticulosCommand: ICommand" style="text;strokeColor=none;fillColor=none;align=left;verticalAlign=top;spacingLeft=4;spacingRight=4;overflow=hidden;rotatable=0;points=[[0,0.5],[1,0.5]];portConstraint=eastwest;whiteSpace=wrap;html=1;" vertex="1" parent="2lPDT9tBsX9n8PKWMI---125">
          <mxGeometry y="26" width="310" height="26" as="geometry" />
        </mxCell>
        <mxCell id="2lPDT9tBsX9n8PKWMI---129" value="+ NavegarAMarcasCommand: ICommand" style="text;strokeColor=none;fillColor=none;align=left;verticalAlign=top;spacingLeft=4;spacingRight=4;overflow=hidden;rotatable=0;points=[[0,0.5],[1,0.5]];portConstraint=eastwest;whiteSpace=wrap;html=1;" vertex="1" parent="2lPDT9tBsX9n8PKWMI---125">
          <mxGeometry y="52" width="310" height="26" as="geometry" />
        </mxCell>
        <mxCell id="2lPDT9tBsX9n8PKWMI---130" value="+ NavegarACategoriasCommand: ICommand" style="text;strokeColor=none;fillColor=none;align=left;verticalAlign=top;spacingLeft=4;spacingRight=4;overflow=hidden;rotatable=0;points=[[0,0.5],[1,0.5]];portConstraint=eastwest;whiteSpace=wrap;html=1;" vertex="1" parent="2lPDT9tBsX9n8PKWMI---125">
          <mxGeometry y="78" width="310" height="26" as="geometry" />
        </mxCell>
        <mxCell id="2lPDT9tBsX9n8PKWMI---127" value="" style="line;strokeWidth=1;fillColor=none;align=left;verticalAlign=middle;spacingTop=-1;spacingLeft=3;spacingRight=3;rotatable=0;labelPosition=right;points=[];portConstraint=eastwest;strokeColor=inherit;" vertex="1" parent="2lPDT9tBsX9n8PKWMI---125">
          <mxGeometry y="104" width="310" height="8" as="geometry" />
        </mxCell>
        <mxCell id="2lPDT9tBsX9n8PKWMI---131" value="puede navegar a" style="endArrow=open;endSize=12;dashed=1;html=1;rounded=0;entryX=0;entryY=0.5;entryDx=0;entryDy=0;" edge="1" parent="v7loar4NtZiH1IZPTKfI-1" target="2lPDT9tBsX9n8PKWMI---27">
          <mxGeometry width="160" relative="1" as="geometry">
            <mxPoint x="820" y="510" as="sourcePoint" />
            <mxPoint x="980" y="510" as="targetPoint" />
          </mxGeometry>
        </mxCell>
        <mxCell id="2lPDT9tBsX9n8PKWMI---132" value="puede navegar a" style="endArrow=open;endSize=12;dashed=1;html=1;rounded=0;exitX=1;exitY=0.5;exitDx=0;exitDy=0;" edge="1" parent="v7loar4NtZiH1IZPTKfI-1" source="2lPDT9tBsX9n8PKWMI---129" target="2lPDT9tBsX9n8PKWMI---40">
          <mxGeometry width="160" relative="1" as="geometry">
            <mxPoint x="890" y="721" as="sourcePoint" />
            <mxPoint x="1100" y="410" as="targetPoint" />
          </mxGeometry>
        </mxCell>
        <mxCell id="2lPDT9tBsX9n8PKWMI---133" value="puede navegar a" style="endArrow=open;endSize=12;dashed=1;html=1;rounded=0;entryX=0;entryY=0.5;entryDx=0;entryDy=0;exitX=1.013;exitY=-0.01;exitDx=0;exitDy=0;exitPerimeter=0;" edge="1" parent="v7loar4NtZiH1IZPTKfI-1" source="2lPDT9tBsX9n8PKWMI---130" target="2lPDT9tBsX9n8PKWMI---48">
          <mxGeometry width="160" relative="1" as="geometry">
            <mxPoint x="840" y="901" as="sourcePoint" />
            <mxPoint x="1050" y="590" as="targetPoint" />
          </mxGeometry>
        </mxCell>
        <mxCell id="2lPDT9tBsX9n8PKWMI---134" value="ArticuloPage" style="swimlane;fontStyle=1;align=center;verticalAlign=top;childLayout=stackLayout;horizontal=1;startSize=26;horizontalStack=0;resizeParent=1;resizeParentMax=0;resizeLast=0;collapsible=1;marginBottom=0;whiteSpace=wrap;html=1;" vertex="1" parent="v7loar4NtZiH1IZPTKfI-1">
          <mxGeometry x="530" y="150" width="290" height="60" as="geometry" />
        </mxCell>
        <mxCell id="2lPDT9tBsX9n8PKWMI---136" value="" style="line;strokeWidth=1;fillColor=none;align=left;verticalAlign=middle;spacingTop=-1;spacingLeft=3;spacingRight=3;rotatable=0;labelPosition=right;points=[];portConstraint=eastwest;strokeColor=inherit;" vertex="1" parent="2lPDT9tBsX9n8PKWMI---134">
          <mxGeometry y="26" width="290" height="8" as="geometry" />
        </mxCell>
        <mxCell id="2lPDT9tBsX9n8PKWMI---137" value="+ ArticuloPage(ArticuloViewModel vm): void" style="text;strokeColor=none;fillColor=none;align=left;verticalAlign=top;spacingLeft=4;spacingRight=4;overflow=hidden;rotatable=0;points=[[0,0.5],[1,0.5]];portConstraint=eastwest;whiteSpace=wrap;html=1;" vertex="1" parent="2lPDT9tBsX9n8PKWMI---134">
          <mxGeometry y="34" width="290" height="26" as="geometry" />
        </mxCell>
        <mxCell id="2lPDT9tBsX9n8PKWMI---138" value="CategoriasPage" style="swimlane;fontStyle=1;align=center;verticalAlign=top;childLayout=stackLayout;horizontal=1;startSize=26;horizontalStack=0;resizeParent=1;resizeParentMax=0;resizeLast=0;collapsible=1;marginBottom=0;whiteSpace=wrap;html=1;" vertex="1" parent="v7loar4NtZiH1IZPTKfI-1">
          <mxGeometry x="530" y="910" width="290" height="60" as="geometry" />
        </mxCell>
        <mxCell id="2lPDT9tBsX9n8PKWMI---139" value="" style="line;strokeWidth=1;fillColor=none;align=left;verticalAlign=middle;spacingTop=-1;spacingLeft=3;spacingRight=3;rotatable=0;labelPosition=right;points=[];portConstraint=eastwest;strokeColor=inherit;" vertex="1" parent="2lPDT9tBsX9n8PKWMI---138">
          <mxGeometry y="26" width="290" height="8" as="geometry" />
        </mxCell>
        <mxCell id="2lPDT9tBsX9n8PKWMI---140" value="+ ArticuloPage(ArticuloViewModel vm): void" style="text;strokeColor=none;fillColor=none;align=left;verticalAlign=top;spacingLeft=4;spacingRight=4;overflow=hidden;rotatable=0;points=[[0,0.5],[1,0.5]];portConstraint=eastwest;whiteSpace=wrap;html=1;" vertex="1" parent="2lPDT9tBsX9n8PKWMI---138">
          <mxGeometry y="34" width="290" height="26" as="geometry" />
        </mxCell>
        <mxCell id="2lPDT9tBsX9n8PKWMI---141" value="MarcasPage" style="swimlane;fontStyle=1;align=center;verticalAlign=top;childLayout=stackLayout;horizontal=1;startSize=26;horizontalStack=0;resizeParent=1;resizeParentMax=0;resizeLast=0;collapsible=1;marginBottom=0;whiteSpace=wrap;html=1;" vertex="1" parent="v7loar4NtZiH1IZPTKfI-1">
          <mxGeometry x="530" y="700" width="290" height="60" as="geometry" />
        </mxCell>
        <mxCell id="2lPDT9tBsX9n8PKWMI---142" value="" style="line;strokeWidth=1;fillColor=none;align=left;verticalAlign=middle;spacingTop=-1;spacingLeft=3;spacingRight=3;rotatable=0;labelPosition=right;points=[];portConstraint=eastwest;strokeColor=inherit;" vertex="1" parent="2lPDT9tBsX9n8PKWMI---141">
          <mxGeometry y="26" width="290" height="8" as="geometry" />
        </mxCell>
        <mxCell id="2lPDT9tBsX9n8PKWMI---143" value="+ ArticuloPage(ArticuloViewModel vm): void" style="text;strokeColor=none;fillColor=none;align=left;verticalAlign=top;spacingLeft=4;spacingRight=4;overflow=hidden;rotatable=0;points=[[0,0.5],[1,0.5]];portConstraint=eastwest;whiteSpace=wrap;html=1;" vertex="1" parent="2lPDT9tBsX9n8PKWMI---141">
          <mxGeometry y="34" width="290" height="26" as="geometry" />
        </mxCell>
        <mxCell id="2lPDT9tBsX9n8PKWMI---144" value="depende de" style="endArrow=open;endSize=12;dashed=1;html=1;rounded=0;exitX=1;exitY=0.5;exitDx=0;exitDy=0;entryX=-0.005;entryY=0.901;entryDx=0;entryDy=0;entryPerimeter=0;" edge="1" parent="v7loar4NtZiH1IZPTKfI-1" source="2lPDT9tBsX9n8PKWMI---137" target="2lPDT9tBsX9n8PKWMI---15">
          <mxGeometry width="160" relative="1" as="geometry">
            <mxPoint x="820" y="197" as="sourcePoint" />
            <mxPoint x="450" y="47" as="targetPoint" />
          </mxGeometry>
        </mxCell>
        <mxCell id="2lPDT9tBsX9n8PKWMI---145" value="depende de" style="endArrow=open;endSize=12;dashed=1;html=1;rounded=0;exitX=1;exitY=0.615;exitDx=0;exitDy=0;entryX=-0.002;entryY=0.222;entryDx=0;entryDy=0;entryPerimeter=0;exitPerimeter=0;" edge="1" parent="v7loar4NtZiH1IZPTKfI-1" source="2lPDT9tBsX9n8PKWMI---143" target="2lPDT9tBsX9n8PKWMI---46">
          <mxGeometry width="160" relative="1" as="geometry">
            <mxPoint x="820" y="746" as="sourcePoint" />
            <mxPoint x="1029" y="680" as="targetPoint" />
          </mxGeometry>
        </mxCell>
        <mxCell id="2lPDT9tBsX9n8PKWMI---146" value="depende de" style="endArrow=open;endSize=12;dashed=1;html=1;rounded=0;exitX=1;exitY=0.231;exitDx=0;exitDy=0;entryX=-0.008;entryY=1.062;entryDx=0;entryDy=0;entryPerimeter=0;exitPerimeter=0;" edge="1" parent="v7loar4NtZiH1IZPTKfI-1" source="2lPDT9tBsX9n8PKWMI---140" target="2lPDT9tBsX9n8PKWMI---61">
          <mxGeometry width="160" relative="1" as="geometry">
            <mxPoint x="860" y="1014" as="sourcePoint" />
            <mxPoint x="1069" y="920" as="targetPoint" />
          </mxGeometry>
        </mxCell>
        <mxCell id="2lPDT9tBsX9n8PKWMI---147" value="MainPage" style="swimlane;fontStyle=1;align=center;verticalAlign=top;childLayout=stackLayout;horizontal=1;startSize=26;horizontalStack=0;resizeParent=1;resizeParentMax=0;resizeLast=0;collapsible=1;marginBottom=0;whiteSpace=wrap;html=1;" vertex="1" parent="v7loar4NtZiH1IZPTKfI-1">
          <mxGeometry x="90" y="476" width="290" height="60" as="geometry" />
        </mxCell>
        <mxCell id="2lPDT9tBsX9n8PKWMI---148" value="" style="line;strokeWidth=1;fillColor=none;align=left;verticalAlign=middle;spacingTop=-1;spacingLeft=3;spacingRight=3;rotatable=0;labelPosition=right;points=[];portConstraint=eastwest;strokeColor=inherit;" vertex="1" parent="2lPDT9tBsX9n8PKWMI---147">
          <mxGeometry y="26" width="290" height="8" as="geometry" />
        </mxCell>
        <mxCell id="2lPDT9tBsX9n8PKWMI---149" value="+ ArticuloPage(ArticuloViewModel vm): void" style="text;strokeColor=none;fillColor=none;align=left;verticalAlign=top;spacingLeft=4;spacingRight=4;overflow=hidden;rotatable=0;points=[[0,0.5],[1,0.5]];portConstraint=eastwest;whiteSpace=wrap;html=1;" vertex="1" parent="2lPDT9tBsX9n8PKWMI---147">
          <mxGeometry y="34" width="290" height="26" as="geometry" />
        </mxCell>
        <mxCell id="2lPDT9tBsX9n8PKWMI---150" value="depende de" style="endArrow=open;endSize=12;dashed=1;html=1;rounded=0;exitX=1.001;exitY=-0.082;exitDx=0;exitDy=0;entryX=-0.008;entryY=0.296;entryDx=0;entryDy=0;entryPerimeter=0;exitPerimeter=0;" edge="1" parent="v7loar4NtZiH1IZPTKfI-1" source="2lPDT9tBsX9n8PKWMI---149" target="2lPDT9tBsX9n8PKWMI---129">
          <mxGeometry width="160" relative="1" as="geometry">
            <mxPoint x="420" y="504" as="sourcePoint" />
            <mxPoint x="629" y="410" as="targetPoint" />
          </mxGeometry>
        </mxCell>
        <mxCell id="2lPDT9tBsX9n8PKWMI---151" value="BaseViewModel" style="swimlane;fontStyle=1;align=center;verticalAlign=top;childLayout=stackLayout;horizontal=1;startSize=26;horizontalStack=0;resizeParent=1;resizeParentMax=0;resizeLast=0;collapsible=1;marginBottom=0;whiteSpace=wrap;html=1;" vertex="1" parent="v7loar4NtZiH1IZPTKfI-1">
          <mxGeometry x="960" y="-4" width="270" height="86" as="geometry" />
        </mxCell>
        <mxCell id="2lPDT9tBsX9n8PKWMI---152" value="+ PropertyChanged: EventHandler" style="text;strokeColor=none;fillColor=none;align=left;verticalAlign=top;spacingLeft=4;spacingRight=4;overflow=hidden;rotatable=0;points=[[0,0.5],[1,0.5]];portConstraint=eastwest;whiteSpace=wrap;html=1;" vertex="1" parent="2lPDT9tBsX9n8PKWMI---151">
          <mxGeometry y="26" width="270" height="26" as="geometry" />
        </mxCell>
        <mxCell id="2lPDT9tBsX9n8PKWMI---153" value="" style="line;strokeWidth=1;fillColor=none;align=left;verticalAlign=middle;spacingTop=-1;spacingLeft=3;spacingRight=3;rotatable=0;labelPosition=right;points=[];portConstraint=eastwest;strokeColor=inherit;" vertex="1" parent="2lPDT9tBsX9n8PKWMI---151">
          <mxGeometry y="52" width="270" height="8" as="geometry" />
        </mxCell>
        <mxCell id="2lPDT9tBsX9n8PKWMI---154" value="# onPropertyChanged(): void" style="text;strokeColor=none;fillColor=none;align=left;verticalAlign=top;spacingLeft=4;spacingRight=4;overflow=hidden;rotatable=0;points=[[0,0.5],[1,0.5]];portConstraint=eastwest;whiteSpace=wrap;html=1;" vertex="1" parent="2lPDT9tBsX9n8PKWMI---151">
          <mxGeometry y="60" width="270" height="26" as="geometry" />
        </mxCell>
        <mxCell id="2lPDT9tBsX9n8PKWMI---155" value="&lt;p style=&quot;margin:0px;margin-top:4px;text-align:center;&quot;&gt;&lt;i&gt;&amp;lt;&amp;lt;Interface&amp;gt;&amp;gt;&lt;/i&gt;&lt;br&gt;&lt;b&gt;INotifyPropertyChanged&lt;/b&gt;&lt;/p&gt;&lt;hr size=&quot;1&quot; style=&quot;border-style:solid;&quot;&gt;&lt;p style=&quot;margin:0px;margin-left:4px;&quot;&gt;&lt;br&gt;&lt;/p&gt;&lt;hr size=&quot;1&quot; style=&quot;border-style:solid;&quot;&gt;&lt;p style=&quot;margin:0px;margin-left:4px;&quot;&gt;&lt;br&gt;&lt;/p&gt;" style="verticalAlign=top;align=left;overflow=fill;html=1;whiteSpace=wrap;" vertex="1" parent="v7loar4NtZiH1IZPTKfI-1">
          <mxGeometry x="1050" y="-184" width="190" height="54" as="geometry" />
        </mxCell>
        <mxCell id="2lPDT9tBsX9n8PKWMI---156" value="" style="endArrow=block;dashed=1;endFill=0;endSize=12;html=1;rounded=0;exitX=0.5;exitY=0;exitDx=0;exitDy=0;entryX=0.25;entryY=1;entryDx=0;entryDy=0;" edge="1" parent="v7loar4NtZiH1IZPTKfI-1" source="2lPDT9tBsX9n8PKWMI---151" target="2lPDT9tBsX9n8PKWMI---155">
          <mxGeometry width="160" relative="1" as="geometry">
            <mxPoint x="1040" y="-20" as="sourcePoint" />
            <mxPoint x="1200" y="-20" as="targetPoint" />
          </mxGeometry>
        </mxCell>
        <mxCell id="2lPDT9tBsX9n8PKWMI---157" value="implements" style="edgeLabel;html=1;align=center;verticalAlign=middle;resizable=0;points=[];" vertex="1" connectable="0" parent="2lPDT9tBsX9n8PKWMI---156">
          <mxGeometry x="-0.1085" y="-1" relative="1" as="geometry">
            <mxPoint as="offset" />
          </mxGeometry>
        </mxCell>
        <mxCell id="2lPDT9tBsX9n8PKWMI---159" value="" style="endArrow=none;html=1;edgeStyle=orthogonalEdgeStyle;rounded=0;exitX=1;exitY=0.5;exitDx=0;exitDy=0;entryX=-0.009;entryY=0.83;entryDx=0;entryDy=0;entryPerimeter=0;" edge="1" parent="v7loar4NtZiH1IZPTKfI-1" source="2lPDT9tBsX9n8PKWMI---152" target="2lPDT9tBsX9n8PKWMI---30">
          <mxGeometry relative="1" as="geometry">
            <mxPoint x="1250" y="39.22999999999999" as="sourcePoint" />
            <mxPoint x="1410" y="39.22999999999999" as="targetPoint" />
          </mxGeometry>
        </mxCell>
        <mxCell id="2lPDT9tBsX9n8PKWMI---160" value="parent" style="edgeLabel;resizable=0;html=1;align=left;verticalAlign=bottom;" connectable="0" vertex="1" parent="2lPDT9tBsX9n8PKWMI---159">
          <mxGeometry x="-1" relative="1" as="geometry" />
        </mxCell>
        <mxCell id="2lPDT9tBsX9n8PKWMI---161" value="child" style="edgeLabel;resizable=0;html=1;align=right;verticalAlign=bottom;" connectable="0" vertex="1" parent="2lPDT9tBsX9n8PKWMI---159">
          <mxGeometry x="1" relative="1" as="geometry" />
        </mxCell>
        <mxCell id="2lPDT9tBsX9n8PKWMI---162" value="" style="endArrow=none;html=1;edgeStyle=orthogonalEdgeStyle;rounded=0;entryX=-0.001;entryY=0.229;entryDx=0;entryDy=0;entryPerimeter=0;" edge="1" parent="v7loar4NtZiH1IZPTKfI-1" source="2lPDT9tBsX9n8PKWMI---154" target="2lPDT9tBsX9n8PKWMI---34">
          <mxGeometry relative="1" as="geometry">
            <mxPoint x="1110" y="230" as="sourcePoint" />
            <mxPoint x="1270" y="230" as="targetPoint" />
            <Array as="points">
              <mxPoint x="1370" y="69" />
              <mxPoint x="1370" y="344" />
            </Array>
          </mxGeometry>
        </mxCell>
        <mxCell id="2lPDT9tBsX9n8PKWMI---163" value="parent" style="edgeLabel;resizable=0;html=1;align=left;verticalAlign=bottom;" connectable="0" vertex="1" parent="2lPDT9tBsX9n8PKWMI---162">
          <mxGeometry x="-1" relative="1" as="geometry" />
        </mxCell>
        <mxCell id="2lPDT9tBsX9n8PKWMI---164" value="child" style="edgeLabel;resizable=0;html=1;align=right;verticalAlign=bottom;" connectable="0" vertex="1" parent="2lPDT9tBsX9n8PKWMI---162">
          <mxGeometry x="1" relative="1" as="geometry" />
        </mxCell>
        <mxCell id="2lPDT9tBsX9n8PKWMI---165" value="" style="endArrow=none;html=1;edgeStyle=orthogonalEdgeStyle;rounded=0;exitX=0.374;exitY=1.076;exitDx=0;exitDy=0;exitPerimeter=0;entryX=0;entryY=0.5;entryDx=0;entryDy=0;" edge="1" parent="v7loar4NtZiH1IZPTKfI-1" source="2lPDT9tBsX9n8PKWMI---154" target="2lPDT9tBsX9n8PKWMI---49">
          <mxGeometry relative="1" as="geometry">
            <mxPoint x="920" y="110.06199999999976" as="sourcePoint" />
            <mxPoint x="1018.25" y="286.84" as="targetPoint" />
            <Array as="points">
              <mxPoint x="1061" y="180" />
              <mxPoint x="1325" y="180" />
              <mxPoint x="1325" y="787" />
            </Array>
          </mxGeometry>
        </mxCell>
        <mxCell id="2lPDT9tBsX9n8PKWMI---166" value="parent" style="edgeLabel;resizable=0;html=1;align=left;verticalAlign=bottom;" connectable="0" vertex="1" parent="2lPDT9tBsX9n8PKWMI---165">
          <mxGeometry x="-1" relative="1" as="geometry">
            <mxPoint y="15" as="offset" />
          </mxGeometry>
        </mxCell>
        <mxCell id="2lPDT9tBsX9n8PKWMI---167" value="child" style="edgeLabel;resizable=0;html=1;align=right;verticalAlign=bottom;" connectable="0" vertex="1" parent="2lPDT9tBsX9n8PKWMI---165">
          <mxGeometry x="1" relative="1" as="geometry" />
        </mxCell>
        <mxCell id="2lPDT9tBsX9n8PKWMI---168" value="" style="endArrow=none;html=1;edgeStyle=orthogonalEdgeStyle;rounded=0;exitX=0.024;exitY=1.071;exitDx=0;exitDy=0;exitPerimeter=0;entryX=1.006;entryY=0.26;entryDx=0;entryDy=0;entryPerimeter=0;" edge="1" parent="v7loar4NtZiH1IZPTKfI-1" source="2lPDT9tBsX9n8PKWMI---154" target="2lPDT9tBsX9n8PKWMI---126">
          <mxGeometry relative="1" as="geometry">
            <mxPoint x="930" y="130" as="sourcePoint" />
            <mxPoint x="940" y="180" as="targetPoint" />
            <Array as="points">
              <mxPoint x="966" y="130" />
              <mxPoint x="860" y="130" />
              <mxPoint x="860" y="483" />
            </Array>
          </mxGeometry>
        </mxCell>
        <mxCell id="2lPDT9tBsX9n8PKWMI---169" value="parent" style="edgeLabel;resizable=0;html=1;align=left;verticalAlign=bottom;" connectable="0" vertex="1" parent="2lPDT9tBsX9n8PKWMI---168">
          <mxGeometry x="-1" relative="1" as="geometry">
            <mxPoint x="-35" y="14" as="offset" />
          </mxGeometry>
        </mxCell>
        <mxCell id="2lPDT9tBsX9n8PKWMI---170" value="child" style="edgeLabel;resizable=0;html=1;align=right;verticalAlign=bottom;" connectable="0" vertex="1" parent="2lPDT9tBsX9n8PKWMI---168">
          <mxGeometry x="1" relative="1" as="geometry" />
        </mxCell>
      </root>
    </mxGraphModel>
  </diagram>
</mxfile>
